<svg width="24" height="24" viewBox="0 0 24 24" fill="none" xmlns="http://www.w3.org/2000/svg">
<path d="M19.0342 17.5054L18.752 17.8549L19.0694 18.1727L23.2638 22.3737L23.2652 22.3751C23.3238 22.4333 23.3703 22.5025 23.402 22.5787C23.4337 22.6549 23.45 22.7366 23.45 22.8191C23.45 22.9016 23.4337 22.9833 23.402 23.0595C23.3703 23.1357 23.3238 23.2049 23.2652 23.2631L23.6177 23.6178L23.2631 23.2652C23.2049 23.3238 23.1357 23.3702 23.0594 23.402C22.9831 23.4337 22.9013 23.45 22.8187 23.45C22.7361 23.45 22.6543 23.4337 22.5781 23.402C22.5018 23.3702 22.4325 23.3238 22.3743 23.2652L22.3736 23.2645L18.1792 19.0635L17.8614 18.7453L17.5114 19.0276C15.4909 20.6578 12.9219 21.4511 10.3336 21.2443C7.74536 21.0374 5.33509 19.8461 3.59934 17.9158C1.86359 15.9855 0.934552 13.4632 1.00359 10.8687C1.07263 8.27413 2.13448 5.80482 3.97043 3.96949C5.80639 2.13416 8.27662 1.07261 10.8722 1.00359C13.4678 0.934571 15.991 1.86335 17.922 3.59852C19.8529 5.33369 21.0446 7.74308 21.2515 10.3303C21.4584 12.9175 20.6648 15.4856 19.0342 17.5054ZM11.1481 20.0685L11.1486 20.0685C13.493 20.0574 15.7377 19.1191 17.3923 17.4587C19.0469 15.7983 19.977 13.5507 19.9792 11.207V11.2065C19.9792 9.45226 19.4583 7.73751 18.4827 6.27942C17.5071 4.82134 16.1206 3.68552 14.4988 3.0158C12.877 2.34608 11.0929 2.17258 9.37234 2.51726C7.65184 2.86195 6.07233 3.70932 4.8339 4.95207C3.59547 6.19483 2.75383 7.77707 2.41559 9.4984C2.07736 11.2197 2.25776 13.0027 2.93394 14.6214C3.61012 16.2402 4.75166 17.6219 6.21393 18.5915C7.6762 19.5612 9.39343 20.0752 11.1481 20.0685Z" fill="#4D4D4F" stroke="#6D6D6F"/>
</svg>
