<svg width="20" height="20" viewBox="0 0 20 20" fill="none" xmlns="http://www.w3.org/2000/svg">
<path d="M5.72802 10.0419C5.74402 10.3647 5.66283 10.6848 5.49493 10.9609C5.32703 11.2371 5.08015 11.4565 4.78621 11.5908C4.49228 11.7251 4.16481 11.7681 3.84615 11.7144C3.5275 11.6606 3.23231 11.5124 2.99876 11.289C2.76521 11.0657 2.60404 10.7774 2.5361 10.4614C2.46815 10.1455 2.49656 9.81642 2.61764 9.51679C2.73872 9.21717 2.9469 8.96076 3.21527 8.78072C3.48365 8.60068 3.79986 8.5053 4.12302 8.5069C4.33287 8.48646 4.54466 8.51156 4.74393 8.58049C4.94319 8.64941 5.12523 8.76053 5.2776 8.90626C5.42998 9.05199 5.5491 9.2289 5.62684 9.42489C5.70457 9.62088 5.73909 9.83135 5.72802 10.0419V10.0419Z" fill="#4D4D4F"/>
<path d="M11.558 10.0419C11.574 10.3647 11.4928 10.6848 11.3249 10.9609C11.157 11.2371 10.9101 11.4565 10.6162 11.5908C10.3222 11.7251 9.99477 11.7681 9.67611 11.7144C9.35746 11.6606 9.06227 11.5124 8.82872 11.289C8.59517 11.0657 8.434 10.7774 8.36605 10.4614C8.29811 10.1455 8.32651 9.81642 8.44759 9.51679C8.56867 9.21717 8.77686 8.96076 9.04523 8.78072C9.3136 8.60068 9.62981 8.5053 9.95298 8.5069C10.1628 8.48646 10.3746 8.51156 10.5739 8.58049C10.7731 8.64941 10.9552 8.76053 11.1076 8.90626C11.2599 9.05199 11.3791 9.2289 11.4568 9.42489C11.5345 9.62088 11.569 9.83135 11.558 10.0419V10.0419Z" fill="#4D4D4F"/>
<path d="M17.3881 10.0419C17.4041 10.3647 17.3229 10.6848 17.155 10.9609C16.9871 11.2371 16.7402 11.4565 16.4463 11.5908C16.1523 11.7251 15.8248 11.7681 15.5062 11.7144C15.1875 11.6606 14.8923 11.5124 14.6588 11.289C14.4252 11.0657 14.2641 10.7774 14.1961 10.4614C14.1282 10.1455 14.1566 9.81642 14.2777 9.51679C14.3988 9.21717 14.6069 8.96076 14.8753 8.78072C15.1437 8.60068 15.4599 8.5053 15.7831 8.5069C15.9929 8.48646 16.2047 8.51156 16.404 8.58049C16.6032 8.64941 16.7853 8.76053 16.9376 8.90626C17.09 9.05199 17.2091 9.2289 17.2869 9.42489C17.3646 9.62088 17.3991 9.83135 17.3881 10.0419V10.0419Z" fill="#4D4D4F"/>
</svg>
